<mxfile host="app.diagrams.net" modified="2024-02-02T08:45:40.618Z" agent="Mozilla/5.0 (Windows NT 10.0; Win64; x64) AppleWebKit/537.36 (KHTML, like Gecko) Chrome/121.0.0.0 Safari/537.36" etag="OvWlcbPVY5YBc2_OBUDl" version="23.1.1" type="github">
  <diagram name="Page-1" id="K7jWccZm29jVIu_cC4zw">
    <mxGraphModel dx="1434" dy="772" grid="1" gridSize="10" guides="1" tooltips="1" connect="1" arrows="1" fold="1" page="1" pageScale="1" pageWidth="850" pageHeight="1100" math="0" shadow="0">
      <root>
        <mxCell id="0" />
        <mxCell id="1" parent="0" />
        <mxCell id="_FURXt_GBnnrolru8a_8-26" style="edgeStyle=orthogonalEdgeStyle;rounded=0;orthogonalLoop=1;jettySize=auto;html=1;exitX=1;exitY=0.5;exitDx=0;exitDy=0;entryX=1;entryY=0.5;entryDx=0;entryDy=0;" edge="1" parent="1" source="_FURXt_GBnnrolru8a_8-1" target="_FURXt_GBnnrolru8a_8-1">
          <mxGeometry relative="1" as="geometry" />
        </mxCell>
        <mxCell id="_FURXt_GBnnrolru8a_8-29" style="edgeStyle=orthogonalEdgeStyle;rounded=0;orthogonalLoop=1;jettySize=auto;html=1;exitX=1;exitY=0.5;exitDx=0;exitDy=0;" edge="1" parent="1" source="_FURXt_GBnnrolru8a_8-1" target="_FURXt_GBnnrolru8a_8-23">
          <mxGeometry relative="1" as="geometry" />
        </mxCell>
        <mxCell id="_FURXt_GBnnrolru8a_8-1" value="USER" style="whiteSpace=wrap;html=1;aspect=fixed;" vertex="1" parent="1">
          <mxGeometry x="50" y="320" width="80" height="80" as="geometry" />
        </mxCell>
        <mxCell id="_FURXt_GBnnrolru8a_8-9" style="edgeStyle=orthogonalEdgeStyle;rounded=0;orthogonalLoop=1;jettySize=auto;html=1;exitX=1;exitY=0.5;exitDx=0;exitDy=0;" edge="1" parent="1" source="_FURXt_GBnnrolru8a_8-2" target="_FURXt_GBnnrolru8a_8-3">
          <mxGeometry relative="1" as="geometry" />
        </mxCell>
        <mxCell id="_FURXt_GBnnrolru8a_8-37" style="edgeStyle=orthogonalEdgeStyle;rounded=0;orthogonalLoop=1;jettySize=auto;html=1;exitX=0;exitY=0.5;exitDx=0;exitDy=0;" edge="1" parent="1" source="_FURXt_GBnnrolru8a_8-2" target="_FURXt_GBnnrolru8a_8-23">
          <mxGeometry relative="1" as="geometry" />
        </mxCell>
        <mxCell id="_FURXt_GBnnrolru8a_8-39" style="edgeStyle=orthogonalEdgeStyle;rounded=0;orthogonalLoop=1;jettySize=auto;html=1;exitX=0.5;exitY=1;exitDx=0;exitDy=0;entryX=0.5;entryY=1;entryDx=0;entryDy=0;" edge="1" parent="1" source="_FURXt_GBnnrolru8a_8-2" target="_FURXt_GBnnrolru8a_8-2">
          <mxGeometry relative="1" as="geometry" />
        </mxCell>
        <mxCell id="_FURXt_GBnnrolru8a_8-42" style="edgeStyle=orthogonalEdgeStyle;rounded=0;orthogonalLoop=1;jettySize=auto;html=1;exitX=0.5;exitY=1;exitDx=0;exitDy=0;entryX=0.5;entryY=0;entryDx=0;entryDy=0;" edge="1" parent="1" source="_FURXt_GBnnrolru8a_8-2" target="_FURXt_GBnnrolru8a_8-24">
          <mxGeometry relative="1" as="geometry" />
        </mxCell>
        <mxCell id="_FURXt_GBnnrolru8a_8-46" style="edgeStyle=orthogonalEdgeStyle;rounded=0;orthogonalLoop=1;jettySize=auto;html=1;exitX=0.75;exitY=1;exitDx=0;exitDy=0;" edge="1" parent="1" source="_FURXt_GBnnrolru8a_8-2" target="_FURXt_GBnnrolru8a_8-44">
          <mxGeometry relative="1" as="geometry" />
        </mxCell>
        <mxCell id="_FURXt_GBnnrolru8a_8-2" value="WEB (REACT APP)" style="whiteSpace=wrap;html=1;aspect=fixed;" vertex="1" parent="1">
          <mxGeometry x="420" y="320" width="80" height="80" as="geometry" />
        </mxCell>
        <mxCell id="_FURXt_GBnnrolru8a_8-16" style="edgeStyle=orthogonalEdgeStyle;rounded=0;orthogonalLoop=1;jettySize=auto;html=1;exitX=1;exitY=0.5;exitDx=0;exitDy=0;entryX=0;entryY=0.5;entryDx=0;entryDy=0;" edge="1" parent="1" source="_FURXt_GBnnrolru8a_8-3" target="_FURXt_GBnnrolru8a_8-4">
          <mxGeometry relative="1" as="geometry" />
        </mxCell>
        <mxCell id="_FURXt_GBnnrolru8a_8-19" style="edgeStyle=orthogonalEdgeStyle;rounded=0;orthogonalLoop=1;jettySize=auto;html=1;exitX=0;exitY=0.5;exitDx=0;exitDy=0;" edge="1" parent="1" source="_FURXt_GBnnrolru8a_8-3" target="_FURXt_GBnnrolru8a_8-2">
          <mxGeometry relative="1" as="geometry" />
        </mxCell>
        <mxCell id="_FURXt_GBnnrolru8a_8-48" style="edgeStyle=orthogonalEdgeStyle;rounded=0;orthogonalLoop=1;jettySize=auto;html=1;exitX=0.5;exitY=1;exitDx=0;exitDy=0;entryX=1;entryY=0.5;entryDx=0;entryDy=0;" edge="1" parent="1" source="_FURXt_GBnnrolru8a_8-3" target="_FURXt_GBnnrolru8a_8-44">
          <mxGeometry relative="1" as="geometry" />
        </mxCell>
        <mxCell id="_FURXt_GBnnrolru8a_8-3" value="BACKEND&lt;br&gt;(PYTHON)" style="whiteSpace=wrap;html=1;aspect=fixed;" vertex="1" parent="1">
          <mxGeometry x="570" y="320" width="80" height="80" as="geometry" />
        </mxCell>
        <mxCell id="_FURXt_GBnnrolru8a_8-4" value="DATABASE (MONGO AZURE)" style="whiteSpace=wrap;html=1;aspect=fixed;" vertex="1" parent="1">
          <mxGeometry x="760" y="320" width="80" height="80" as="geometry" />
        </mxCell>
        <mxCell id="_FURXt_GBnnrolru8a_8-20" value="1" style="ellipse;whiteSpace=wrap;html=1;aspect=fixed;strokeWidth=2;fontFamily=Tahoma;spacingBottom=4;spacingRight=2;strokeColor=#d3d3d3;" vertex="1" parent="1">
          <mxGeometry x="170" y="330" width="20" height="20" as="geometry" />
        </mxCell>
        <mxCell id="_FURXt_GBnnrolru8a_8-21" value="2" style="ellipse;whiteSpace=wrap;html=1;aspect=fixed;strokeWidth=2;fontFamily=Tahoma;spacingBottom=4;spacingRight=2;strokeColor=#d3d3d3;" vertex="1" parent="1">
          <mxGeometry x="345" y="330" width="20" height="20" as="geometry" />
        </mxCell>
        <mxCell id="_FURXt_GBnnrolru8a_8-22" value="3" style="ellipse;whiteSpace=wrap;html=1;aspect=fixed;strokeWidth=2;fontFamily=Tahoma;spacingBottom=4;spacingRight=2;strokeColor=#d3d3d3;" vertex="1" parent="1">
          <mxGeometry x="520" y="330" width="20" height="20" as="geometry" />
        </mxCell>
        <mxCell id="_FURXt_GBnnrolru8a_8-31" style="edgeStyle=orthogonalEdgeStyle;rounded=0;orthogonalLoop=1;jettySize=auto;html=1;exitX=0;exitY=0.5;exitDx=0;exitDy=0;entryX=1;entryY=0.5;entryDx=0;entryDy=0;" edge="1" parent="1" source="_FURXt_GBnnrolru8a_8-23" target="_FURXt_GBnnrolru8a_8-1">
          <mxGeometry relative="1" as="geometry" />
        </mxCell>
        <mxCell id="_FURXt_GBnnrolru8a_8-34" style="edgeStyle=orthogonalEdgeStyle;rounded=0;orthogonalLoop=1;jettySize=auto;html=1;exitX=1;exitY=0.5;exitDx=0;exitDy=0;" edge="1" parent="1" source="_FURXt_GBnnrolru8a_8-23" target="_FURXt_GBnnrolru8a_8-2">
          <mxGeometry relative="1" as="geometry" />
        </mxCell>
        <mxCell id="_FURXt_GBnnrolru8a_8-23" value="Files d&#39;attente" style="whiteSpace=wrap;html=1;aspect=fixed;" vertex="1" parent="1">
          <mxGeometry x="220" y="320" width="80" height="80" as="geometry" />
        </mxCell>
        <mxCell id="_FURXt_GBnnrolru8a_8-43" style="edgeStyle=orthogonalEdgeStyle;rounded=0;orthogonalLoop=1;jettySize=auto;html=1;entryX=0.5;entryY=1;entryDx=0;entryDy=0;" edge="1" parent="1" source="_FURXt_GBnnrolru8a_8-24" target="_FURXt_GBnnrolru8a_8-2">
          <mxGeometry relative="1" as="geometry" />
        </mxCell>
        <mxCell id="_FURXt_GBnnrolru8a_8-24" value="AZURE MONITOR (GRAPHANA)" style="whiteSpace=wrap;html=1;aspect=fixed;" vertex="1" parent="1">
          <mxGeometry x="345" y="450" width="80" height="80" as="geometry" />
        </mxCell>
        <mxCell id="_FURXt_GBnnrolru8a_8-32" style="edgeStyle=orthogonalEdgeStyle;rounded=0;orthogonalLoop=1;jettySize=auto;html=1;exitX=0.5;exitY=1;exitDx=0;exitDy=0;" edge="1" parent="1" source="_FURXt_GBnnrolru8a_8-4" target="_FURXt_GBnnrolru8a_8-4">
          <mxGeometry relative="1" as="geometry" />
        </mxCell>
        <mxCell id="_FURXt_GBnnrolru8a_8-44" value="AZURE POWER BI" style="whiteSpace=wrap;html=1;aspect=fixed;" vertex="1" parent="1">
          <mxGeometry x="480" y="450" width="80" height="80" as="geometry" />
        </mxCell>
        <mxCell id="_FURXt_GBnnrolru8a_8-51" value="4" style="ellipse;whiteSpace=wrap;html=1;aspect=fixed;strokeWidth=2;fontFamily=Tahoma;spacingBottom=4;spacingRight=2;strokeColor=#d3d3d3;" vertex="1" parent="1">
          <mxGeometry x="700" y="330" width="20" height="20" as="geometry" />
        </mxCell>
        <mxCell id="_FURXt_GBnnrolru8a_8-52" value="5" style="ellipse;whiteSpace=wrap;html=1;aspect=fixed;strokeWidth=2;fontFamily=Tahoma;spacingBottom=4;spacingRight=2;strokeColor=#d3d3d3;" vertex="1" parent="1">
          <mxGeometry x="400" y="400" width="20" height="20" as="geometry" />
        </mxCell>
        <mxCell id="_FURXt_GBnnrolru8a_8-53" value="6" style="ellipse;whiteSpace=wrap;html=1;aspect=fixed;strokeWidth=2;fontFamily=Tahoma;spacingBottom=4;spacingRight=2;strokeColor=#d3d3d3;" vertex="1" parent="1">
          <mxGeometry x="530" y="410" width="20" height="20" as="geometry" />
        </mxCell>
        <mxCell id="_FURXt_GBnnrolru8a_8-54" value="7" style="ellipse;whiteSpace=wrap;html=1;aspect=fixed;strokeWidth=2;fontFamily=Tahoma;spacingBottom=4;spacingRight=2;strokeColor=#d3d3d3;" vertex="1" parent="1">
          <mxGeometry x="630" y="440" width="20" height="20" as="geometry" />
        </mxCell>
      </root>
    </mxGraphModel>
  </diagram>
</mxfile>
